inDegrees=no
num_controls=7
num_derivatives=13
num_iterations=37
num_multipliers=7
num_parameters=0
num_slacks=7
num_states=26
objective=0.471965
objective_accelerations=0.053708
objective_balance=0.000543
objective_effort=0.015051
objective_height=0.393555
objective_ligament=0.009108
solver_duration=515.022272
status=Solve_Succeeded
success=true
DataType=double
version=3
OpenSimVersion=4.5
endheader
time	/jointset/ground_pelvis/pelvis_tilt/value	/jointset/ground_pelvis/pelvis_tx/value	/jointset/ground_pelvis/pelvis_ty/value	/jointset/hip_l/hip_flexion_l/value	/jointset/hip_l/hip_adduction_l/value	/jointset/hip_l/hip_rotation_l/value	/jointset/back/lumbar_extension/value	/jointset/patellofemoral_l/patellar_flexion_l/value	/jointset/knee_l/knee_flexion_l/value	/jointset/knee_l/knee_adduction_l/value	/jointset/knee_l/knee_rotation_l/value	/jointset/ankle_l/ankle_angle_l/value	/jointset/subtalar_l/subtalar_angle_l/value	/jointset/ground_pelvis/pelvis_tilt/speed	/jointset/ground_pelvis/pelvis_tx/speed	/jointset/ground_pelvis/pelvis_ty/speed	/jointset/hip_l/hip_flexion_l/speed	/jointset/hip_l/hip_adduction_l/speed	/jointset/hip_l/hip_rotation_l/speed	/jointset/back/lumbar_extension/speed	/jointset/patellofemoral_l/patellar_flexion_l/speed	/jointset/knee_l/knee_flexion_l/speed	/jointset/knee_l/knee_adduction_l/speed	/jointset/knee_l/knee_rotation_l/speed	/jointset/ankle_l/ankle_angle_l/speed	/jointset/subtalar_l/subtalar_angle_l/speed	/forceset/tau_hip_flexion_l	/forceset/tau_hip_adduction_l	/forceset/tau_hip_rotation_l	/forceset/tau_knee_flexion_l	/forceset/tau_ankle_angle_l	/forceset/tau_subtalar_angle_l	/forceset/tau_lumbar_extension	lambda_cid13_p0	lambda_cid13_p1	lambda_cid13_p2	lambda_cid13_p3	lambda_cid13_p4	lambda_cid13_p5	lambda_cid14_p0	/jointset/ground_pelvis/pelvis_tilt/accel	/jointset/ground_pelvis/pelvis_tx/accel	/jointset/ground_pelvis/pelvis_ty/accel	/jointset/hip_l/hip_flexion_l/accel	/jointset/hip_l/hip_adduction_l/accel	/jointset/hip_l/hip_rotation_l/accel	/jointset/back/lumbar_extension/accel	/jointset/patellofemoral_l/patellar_flexion_l/accel	/jointset/knee_l/knee_flexion_l/accel	/jointset/knee_l/knee_adduction_l/accel	/jointset/knee_l/knee_rotation_l/accel	/jointset/ankle_l/ankle_angle_l/accel	/jointset/subtalar_l/subtalar_angle_l/accel	gamma_cid13_p0	gamma_cid13_p1	gamma_cid13_p2	gamma_cid13_p3	gamma_cid13_p4	gamma_cid13_p5	gamma_cid14_p0
0.5	-0.1623369715340645	0.04781104441682461	0.7953093772003874	0.8565522551948604	-0.364964603536191	-0.02701125822954445	-0.3934444410961137	0.8821924147978596	0.8821924147978413	-0.04262342846482696	-0.1739124841230028	0.3104597576505146	0.160381206859641	-0.6325393008075796	-0.1329702586857735	-0.4282352178839899	2.03407962155679	-0.0005151488753257348	0.5180286414819325	-0.3192504594531123	1.787218028554653	1.787218028554654	0.2119669841090095	-0.008001686403601577	0.5292031183865977	0.2175860845556036	-0.08254952749740931	0.07651448565826018	0.000401128441528275	-0.1994058286348048	0.009870994977303472	-0.01975309831198978	0.1034378118058782	-24.53234854251443	17.17430640614955	-7.930812089116756	1.98310644779277	-444.0009365311064	-27.16355721680739	-7.684990154272758	0.1219316893060234	0.2506101245167697	-0.3620705648497122	-0.9165758347694076	0.1907368458986297	-0.4809222973844295	1.203947487114318	-1.455998440797232	-1.455998440797218	-0.2206002583887163	0.1459911278023636	-0.771561813792478	0.174670637426707	-3.171068486973281e-07	-1.488728182813818e-06	3.610095847593001e-06	-6.279352064720215e-09	-7.554369311611778e-07	-1.870587254382738e-06	-5.533207735046726e-07
0.51	-0.1686545339545072	0.04649416761166698	0.7910099604255936	0.876842851333516	-0.3649623101361272	-0.02185327929922972	-0.3965772265417815	0.8999885876501247	0.8999885876501388	-0.04052047780786186	-0.1739866853467464	0.3157118634815161	0.162562322747326	-0.6308840340471215	-0.1303819787086214	-0.4315528057637365	2.023753183919689	0.0009706454381980233	0.5134852889525817	-0.3072634806484922	1.771773494575042	1.771773494575042	0.2086367429095291	-0.006869011417167951	0.5211581497275614	0.218603479563283	-0.08661684042523435	0.07788024788445641	-0.0001259730176631435	-0.2011107231142905	0.008106774136387617	-0.01895107134468722	0.1065969903154344	-25.22294494296795	17.10123530997638	-8.095446316228056	2.099380837928615	-446.5871665542355	-27.13306592867756	-6.980026621635703	0.2006639903184777	0.2664041222770014	-0.302454738559251	-1.13368604280276	0.1265701642877494	-0.4538660145733434	1.202545432044149	-1.625025247859561	-1.625025247859648	-0.3873300938610546	0.0929735396292862	-0.8300229015353654	0.06003463201849532	-3.164533264135611e-07	-1.38274759256065e-06	3.651891859560745e-06	9.465553793975407e-09	-7.443655807885845e-07	-1.754804168100985e-06	-5.542911497424449e-07
0.52	-0.17495287574317	0.04520386704387286	0.7866801974041977	0.8970215814328715	-0.3649453449049005	-0.01674329875096441	-0.3995888477284206	0.9176230462883438	0.917623046288358	-0.03845044837161945	-0.1740503462494591	0.3208817079240084	0.1647525647250028	-0.628695174450544	-0.1276550112130701	-0.4343044672043155	2.011706413697682	0.002419217360057675	0.5084289650687185	-0.2950176076475178	1.754875185742778	1.754875185742778	0.2053827399847179	-0.00589362220811477	0.5127508406854828	0.2194113025541634	-0.09068415335303766	0.07924601011069188	-0.0006530744773757052	-0.202815617593755	0.006342553295493259	-0.01814904437730804	0.1097561688250033	-25.91000296995658	17.01807035855606	-8.247647609283735	2.186241949611206	-449.1265096687699	-27.19133344603926	-6.314287675358177	0.2286502565299158	0.2783476281965346	-0.2488852770161963	-1.260642351750709	0.1832923675658681	-0.5835165682868799	1.255726326385196	-1.74675341132764	-1.746753411327646	-0.2053526034547864	0.1145339723263698	-0.8440298904010023	0.1327562340669071	-3.09010702467824e-07	-1.120430101797044e-06	3.627297659197088e-06	4.230160511689513e-08	-7.174682898885078e-07	-1.528180893723828e-06	-5.35408930054161e-07
0.53	-0.1812268092549681	0.04394147029197599	0.7823257727830593	0.9170715349623731	-0.3649140332866569	-0.01168560259766844	-0.4024768027013848	0.9350814066026311	0.9350814066026517	-0.03641304784696271	-0.1741045462126322	0.3259657159322992	0.1669498323634741	-0.6260071525479936	-0.1248064181415493	-0.4364811581106426	1.998005543553631	0.003830621970547177	0.503055625145268	-0.2825489574814601	1.736557185649753	1.736557185649749	0.2020765385311628	-0.004971755233175938	0.50398899523931	0.2199910545565468	-0.09465998507745693	0.08044815748374023	-0.001117188554773466	-0.2047690151825002	0.004731457212861741	-0.01750723491928786	0.1128194352833586	-26.57349958356152	17.01603713742796	-8.43068952567311	2.312824495294653	-451.8003439300214	-27.15386493347707	-5.68809434485232	0.3015051985376551	0.2908152098689427	-0.187306828614466	-1.466663404466175	0.1177044396657399	-0.5229383792398945	1.246098781424909	-1.910171929836048	-1.910171929836775	-0.3964556837170996	0.0778489881476786	-0.9015806641668658	0.01263402306482104	-3.002152202118849e-07	-8.78638791867879e-07	3.590875579356552e-06	7.157143057183134e-08	-6.880865807579243e-07	-1.308535005322872e-06	-5.168891535428841e-07
0.54	-0.1874713371394628	0.0427080994834417	0.7779525320866228	0.9369761089786818	-0.3648690796359473	-0.006683378978567635	-0.4052393382887464	0.9523494171916786	0.9523494171917056	-0.03440934969032575	-0.1741501603204347	0.3309602417276404	0.1691513073899162	-0.6228140489886234	-0.1218498225405504	-0.4380676822638664	1.982630511060214	0.005147623856051736	0.4973344582271847	-0.2699337305270261	1.716805240694885	1.716805240694876	0.1986422663811548	-0.004176451135430866	0.4948543980954819	0.2202527801485626	-0.09863581680187103	0.08165030485678827	-0.001581302632171728	-0.2067224127712406	0.003120361130232249	-0.01686542546126752	0.1158827017417187	-27.23415207117276	17.00450016449768	-8.601927827696397	2.410869637543916	-454.4363361233141	-27.20184617933393	-5.101410574796283	0.3296665878939002	0.2999481340920618	-0.1308519263955558	-1.595474821624246	0.1644118225689647	-0.6530819672134036	1.285041684060529	-2.033542383696296	-2.033542383696296	-0.2309667427452742	0.0892213968877279	-0.9185802299321645	0.06915095199341109	-2.899229585489137e-07	-6.595572990321397e-07	3.541367334988405e-06	9.689564442814747e-08	-6.559561535850779e-07	-1.096608778001968e-06	-4.987703779934024e-07
